TITLE ""
FILE "Step3_Track27.mp3" MP3
  TRACK 01 AUDIO
    TITLE "Step3_Track27_01"
    INDEX 01 00:00:00
  TRACK 02 AUDIO
    TITLE "Step3_Track27_02"
    INDEX 01 00:00:22
  TRACK 03 AUDIO
    TITLE "Step3_Track27_03"
    INDEX 01 00:01:69
  TRACK 04 AUDIO
    TITLE "Step3_Track27_04"
    INDEX 01 00:02:52
  TRACK 05 AUDIO
    TITLE "Step3_Track27_05"
    INDEX 01 00:03:48
  TRACK 06 AUDIO
    TITLE "Step3_Track27_06"
    INDEX 01 00:03:52
  TRACK 07 AUDIO
    TITLE "Step3_Track27_07"
    INDEX 01 00:06:25
  TRACK 08 AUDIO
    TITLE "Step3_Track27_08"
    INDEX 01 00:06:52
  TRACK 09 AUDIO
    TITLE "Step3_Track27_09"
    INDEX 01 00:07:51
  TRACK 10 AUDIO
    TITLE "Step3_Track27_10"
    INDEX 01 00:07:57
  TRACK 11 AUDIO
    TITLE "Step3_Track27_11"
    INDEX 01 00:09:72
  TRACK 12 AUDIO
    TITLE "Step3_Track27_12"
    INDEX 01 00:10:40
  TRACK 13 AUDIO
    TITLE "Step3_Track27_13"
    INDEX 01 00:11:43
  TRACK 14 AUDIO
    TITLE "Step3_Track27_14"
    INDEX 01 00:11:51
  TRACK 15 AUDIO
    TITLE "Step3_Track27_15"
    INDEX 01 00:13:58
  TRACK 16 AUDIO
    TITLE "Step3_Track27_16"
    INDEX 01 00:14:22
  TRACK 17 AUDIO
    TITLE "Step3_Track27_17"
    INDEX 01 00:15:27
  TRACK 18 AUDIO
    TITLE "Step3_Track27_18"
    INDEX 01 00:15:47
  TRACK 19 AUDIO
    TITLE "Step3_Track27_19"
    INDEX 01 00:17:71
  TRACK 20 AUDIO
    TITLE "Step3_Track27_20"
    INDEX 01 00:18:20
  TRACK 21 AUDIO
    TITLE "Step3_Track27_21"
    INDEX 01 00:19:17
  TRACK 22 AUDIO
    TITLE "Step3_Track27_22"
    INDEX 01 00:19:31
  TRACK 23 AUDIO
    TITLE "Step3_Track27_23"
    INDEX 01 00:21:59
  TRACK 24 AUDIO
    TITLE "Step3_Track27_24"
    INDEX 01 00:21:71
  TRACK 25 AUDIO
    TITLE "Step3_Track27_25"
    INDEX 01 00:22:73
  TRACK 26 AUDIO
    TITLE "Step3_Track27_26"
    INDEX 01 00:23:11
  TRACK 27 AUDIO
    TITLE "Step3_Track27_27"
    INDEX 01 00:26:04
  TRACK 28 AUDIO
    TITLE "Step3_Track27_28"
    INDEX 01 00:26:12
  TRACK 29 AUDIO
    TITLE "Step3_Track27_29"
    INDEX 01 00:27:17
  TRACK 30 AUDIO
    TITLE "Step3_Track27_30"
    INDEX 01 00:27:31
  TRACK 31 AUDIO
    TITLE "Step3_Track27_31"
    INDEX 01 00:31:07
  TRACK 32 AUDIO
    TITLE "Step3_Track27_32"
    INDEX 01 00:31:27
  TRACK 33 AUDIO
    TITLE "Step3_Track27_33"
    INDEX 01 00:32:06
  TRACK 34 AUDIO
    TITLE "Step3_Track27_34"
    INDEX 01 00:32:32
  TRACK 35 AUDIO
    TITLE "Step3_Track27_35"
    INDEX 01 00:35:26
  TRACK 36 AUDIO
    TITLE "Step3_Track27_36"
    INDEX 01 00:35:65
  TRACK 37 AUDIO
    TITLE "Step3_Track27_37"
    INDEX 01 00:36:67
  TRACK 38 AUDIO
    TITLE "Step3_Track27_38"
    INDEX 01 00:37:02
  TRACK 39 AUDIO
    TITLE "Step3_Track27_39"
    INDEX 01 00:40:47
  TRACK 40 AUDIO
    TITLE "Step3_Track27_40"
    INDEX 01 00:40:69
  TRACK 41 AUDIO
    TITLE "Step3_Track27_41"
    INDEX 01 00:41:64
  TRACK 42 AUDIO
    TITLE "Step3_Track27_42"
    INDEX 01 00:41:70
  TRACK 43 AUDIO
    TITLE "Step3_Track27_43"
    INDEX 01 00:46:34
